<svg width="174" height="36" viewBox="0 0 174 36" fill="none" xmlns="http://www.w3.org/2000/svg">
<path d="M11.7989 1.30061e-06H0.00179484V11.7486H11.7989V1.30061e-06Z" fill="white"/>
<path d="M25.7784 14.184H13.9777V25.9308H25.7784V14.184Z" fill="white"/>
<path d="M25.7784 1.11723e-06H13.9777V11.7486H35.8955V10.0692C35.895 8.74483 35.6329 7.43367 35.1243 6.21146C34.6157 4.98926 33.8707 3.88022 32.9324 2.9484C31.0291 1.05841 28.4568 -0.00125599 25.7784 1.11723e-06Z" fill="white"/>
<path d="M0 14.184V25.9308C0 28.602 1.0661 31.1634 2.96138 33.0516C4.86554 34.9425 7.43751 36.0022 10.1172 36H11.8024V14.184H0Z" fill="white"/>
<path d="M0 1.30061e-06L11.7989 11.7486H0V1.30061e-06Z" fill="white"/>
<path d="M13.9777 14.184L25.7784 25.9308H13.9777V14.184Z" fill="white"/>
<path d="M0 25.9308C0 28.602 1.0661 31.1634 2.96138 33.0516C4.86554 34.9425 7.43751 36.0022 10.1172 36H11.8024V14.184L0 25.9308Z" fill="white"/>
<path d="M25.7802 1.30061e-06C28.4616 1.30061e-06 31.0353 1.062 32.9324 2.9484C33.8707 3.88022 34.6157 4.98926 35.1243 6.21146C35.6326 7.43366 35.8935 8.74495 35.8937 10.0692V11.7486H13.9813L25.7802 1.30061e-06Z" fill="white"/>
<path d="M58.0305 15.885H55.2181V28.5516H52.0467V15.885H50.2519V13.311H52.0467V12.2328C52.0467 10.4808 52.5062 9.2088 53.4251 8.4168C54.362 7.6068 55.8235 7.2012 57.8097 7.2V9.828C56.8525 9.828 56.1813 10.0122 55.796 10.3806C55.4107 10.731 55.2181 11.349 55.2181 12.2346V13.3128H58.0305V15.885ZM61.8642 11.2932C61.2934 11.2932 60.8148 11.0994 60.4283 10.7118C60.2396 10.524 60.0911 10.2997 59.9917 10.0524C59.8923 9.80511 59.8443 9.54013 59.8504 9.2736C59.8504 8.7036 60.0436 8.2242 60.4301 7.8354C60.8154 7.449 61.2934 7.2558 61.8642 7.2558C62.4145 7.2558 62.883 7.449 63.2695 7.8354C63.6559 8.2242 63.8492 8.7042 63.8492 9.2754C63.8492 9.8466 63.6565 10.3254 63.2713 10.7118C63.0886 10.8998 62.8695 11.0483 62.6276 11.1483C62.3856 11.2482 62.1258 11.2976 61.8642 11.2932ZM63.4077 13.3128V28.5516H60.265V13.3128H63.4077ZM70.1291 15.525C70.5639 14.7734 71.1918 14.1524 71.9472 13.7268C72.7202 13.284 73.6307 13.0626 74.6789 13.0626V16.326H73.8784C72.646 16.326 71.7085 16.6398 71.066 17.2674C70.4402 17.895 70.1273 18.9828 70.1273 20.5308V28.5516H66.9846V13.3128H70.1273L70.1291 15.525ZM90.9431 20.5578C90.9431 21.1302 90.906 21.6462 90.8318 22.1058H79.2214C79.3148 23.3238 79.7653 24.3018 80.5729 25.0398C81.3817 25.7766 82.3749 26.145 83.5522 26.145C85.2429 26.145 86.4376 25.4352 87.1364 24.0156H90.5285C90.0773 25.4046 89.1989 26.6145 88.0194 27.4716C86.8241 28.3572 85.3344 28.8 83.5504 28.8C82.0991 28.8 80.7943 28.4772 79.636 27.8316C78.5002 27.1748 77.5654 26.2186 76.9331 25.0668C76.2906 23.868 75.9687 22.485 75.9675 20.9178C75.9675 19.3506 76.2804 17.9766 76.9062 16.7958C77.5151 15.6363 78.4433 14.6766 79.5804 14.031C80.7398 13.3854 82.0638 13.0626 83.5522 13.0626C84.9857 13.0626 86.2635 13.3764 87.3859 14.004C88.5046 14.6304 89.3781 15.5154 90.0062 16.659C90.6296 17.7846 90.9419 19.0842 90.9431 20.5578ZM87.6605 19.5624C87.6425 18.402 87.2291 17.4708 86.4203 16.7688C85.6114 16.068 84.6094 15.7176 83.414 15.7176C82.3288 15.7176 81.4003 16.068 80.6285 16.7688C79.8568 17.4516 79.3973 18.3828 79.2502 19.5624H87.6605ZM99.8542 15.885H97.0418V28.5516H93.8704V15.885H92.0792V13.311H93.8704V12.2328C93.8704 10.4808 94.3299 9.2088 95.2488 8.4168C96.1869 7.6068 97.649 7.2012 99.6352 7.2V9.828C98.6804 9.828 98.0098 10.0122 97.6233 10.3806C97.2368 10.731 97.0436 11.349 97.0436 12.2346V13.3128H99.856L99.8542 15.885ZM105.233 8.0856V28.5516H102.089V8.0856H105.233ZM110.409 11.2932C109.839 11.2932 109.36 11.0994 108.973 10.7118C108.785 10.524 108.636 10.2997 108.537 10.0524C108.437 9.80511 108.389 9.54013 108.396 9.2736C108.396 8.7036 108.589 8.2242 108.975 7.8354C109.361 7.449 109.839 7.2558 110.409 7.2558C110.96 7.2558 111.428 7.449 111.815 7.8354C112.201 8.2242 112.394 8.7042 112.394 9.2754C112.394 9.8466 112.201 10.3254 111.815 10.7118C111.632 10.8995 111.413 11.0479 111.172 11.1479C110.93 11.2479 110.671 11.2973 110.409 11.2932ZM111.953 13.3128V28.5516H108.808V13.3128H111.953ZM129.455 20.5578C129.455 21.1302 129.418 21.6462 129.344 22.1058H117.736C117.826 23.3238 118.276 24.3018 119.085 25.0398C119.894 25.7766 120.887 26.145 122.065 26.145C123.755 26.145 124.95 25.4352 125.649 24.0156H129.041C128.59 25.4046 127.711 26.6145 126.532 27.4716C125.336 28.3572 123.847 28.8 122.063 28.8C120.611 28.8 119.307 28.4772 118.15 27.8316C117.014 27.1751 116.078 26.2189 115.445 25.0668C114.803 23.868 114.482 22.485 114.482 20.9178C114.482 19.3506 114.794 17.9766 115.418 16.7958C116.027 15.6363 116.956 14.6766 118.093 14.031C119.252 13.3854 120.576 13.0626 122.065 13.0626C123.498 13.0626 124.776 13.3764 125.898 14.004C127.018 14.6304 127.892 15.5154 128.519 16.659C129.142 17.7846 129.454 19.0842 129.455 20.5578ZM126.173 19.5624C126.155 18.402 125.741 17.4708 124.933 16.7688C124.124 16.068 123.122 15.7176 121.926 15.7176C120.842 15.7176 119.914 16.068 119.141 16.7688C118.369 17.4516 117.91 18.3828 117.762 19.5624H126.173ZM137.512 28.8C136.317 28.8 135.241 28.5882 134.285 28.1646C133.348 27.7218 132.604 27.1314 132.052 26.3934C131.511 25.6634 131.203 24.786 131.169 23.877H134.423C134.48 24.5226 134.783 25.0668 135.333 25.5096C135.904 25.9332 136.612 26.145 137.457 26.145C138.34 26.145 139.02 25.9788 139.497 25.6464C139.994 25.2972 140.242 24.855 140.242 24.3198C140.242 23.7486 139.967 23.3244 139.416 23.0472C138.883 22.77 138.027 22.4658 136.85 22.1346C135.905 21.8849 134.976 21.5802 134.066 21.222C133.345 20.9225 132.702 20.4584 132.191 19.8666C131.676 19.2582 131.419 18.456 131.419 17.46C131.419 16.65 131.658 15.9126 132.135 15.2478C132.612 14.565 133.293 14.0304 134.176 13.644C135.078 13.2564 136.107 13.0626 137.263 13.0626C138.993 13.0626 140.381 13.5054 141.427 14.391C142.494 15.2574 143.065 16.4466 143.139 17.9586H139.994C139.978 17.6435 139.896 17.3353 139.754 17.0541C139.611 16.7728 139.411 16.5247 139.167 16.326C138.67 15.9204 137.999 15.7176 137.153 15.7176C136.328 15.7176 135.693 15.8748 135.251 16.1892C135.044 16.3234 134.876 16.5079 134.76 16.7255C134.644 16.943 134.585 17.1864 134.588 17.433C134.588 17.8386 134.736 18.18 135.03 18.4572C135.324 18.7344 135.683 18.9552 136.107 19.1196C136.529 19.2672 137.154 19.461 137.981 19.701C139.084 19.9962 139.985 20.3004 140.684 20.6136C141.401 20.9088 142.018 21.3516 142.532 21.942C143.047 22.5312 143.313 23.3148 143.331 24.2928C143.331 25.158 143.092 25.932 142.613 26.6148C142.134 27.2976 141.455 27.8322 140.574 28.2186C139.71 28.6062 138.69 28.8 137.512 28.8ZM147.444 28.746C146.875 28.746 146.397 28.5522 146.01 28.1646C145.822 27.9766 145.673 27.752 145.573 27.5044C145.474 27.2568 145.426 26.9914 145.433 26.7246C145.433 26.1546 145.625 25.6758 146.01 25.2882C146.397 24.9006 146.876 24.7068 147.446 24.7068C147.997 24.7068 148.465 24.9006 148.852 25.2882C149.238 25.6746 149.431 26.154 149.431 26.7264C149.431 27.2976 149.238 27.777 148.852 28.1646C148.669 28.3522 148.45 28.5004 148.208 28.6001C147.966 28.6997 147.706 28.7506 147.444 28.746ZM151.23 20.862C151.23 19.332 151.542 17.9772 152.167 16.7976C152.765 15.6631 153.663 14.7151 154.762 14.0566C155.86 13.3981 157.118 13.0543 158.398 13.0626C159.593 13.0626 160.632 13.3026 161.516 13.7826C162.415 14.2434 163.132 14.8242 163.666 15.525V13.311H166.837V28.5516H163.666V26.2836C163.132 27.0036 162.406 27.603 161.487 28.0818C160.568 28.5606 159.52 28.8 158.344 28.8C157.079 28.8118 155.837 28.4669 154.758 27.8046C153.662 27.1099 152.767 26.1368 152.167 24.984C151.541 23.7672 151.23 22.3932 151.23 20.862ZM163.666 20.9178C163.666 19.8678 163.444 18.9552 163.002 18.18C162.615 17.4459 162.033 16.8335 161.32 16.4106C160.634 16.0076 159.853 15.7968 159.058 15.8004C158.251 15.8004 157.497 16.0032 156.797 16.4088C156.098 16.7964 155.529 17.3778 155.088 18.153C154.665 18.909 154.453 19.812 154.453 20.862C154.453 21.9132 154.665 22.8354 155.088 23.6286C155.529 24.4206 156.098 25.029 156.797 25.4538C157.515 25.8594 158.269 26.0622 159.058 26.0622C159.866 26.0622 160.62 25.8594 161.32 25.4538C162.02 25.0482 162.58 24.4584 163.002 23.6844C163.444 22.8912 163.666 21.969 163.666 20.9178ZM172.015 11.2932C171.444 11.2932 170.966 11.0994 170.579 10.7118C170.39 10.524 170.242 10.2997 170.142 10.0524C170.043 9.80511 169.995 9.54013 170.001 9.2736C170.001 8.7036 170.194 8.2242 170.581 7.8354C170.966 7.449 171.444 7.2558 172.015 7.2558C172.565 7.2558 173.034 7.449 173.42 7.8354C173.807 8.2242 174 8.7042 174 9.2754C174 9.8466 173.807 10.3254 173.42 10.7118C173.238 10.8998 173.019 11.0483 172.777 11.1483C172.535 11.2482 172.275 11.2976 172.013 11.2932M173.557 13.3128V28.5516H170.412V13.3128H173.557Z" fill="white"/>
</svg>
